<?xml version="1.0" encoding="UTF-8" standalone="no"?>
<!-- Generator: Adobe Illustrator 16.0.4, SVG Export Plug-In . SVG Version: 6.00 Build 0)  -->

<svg
   xmlns:dc="http://purl.org/dc/elements/1.1/"
   xmlns:cc="http://creativecommons.org/ns#"
   xmlns:rdf="http://www.w3.org/1999/02/22-rdf-syntax-ns#"
   xmlns:svg="http://www.w3.org/2000/svg"
   xmlns="http://www.w3.org/2000/svg"
   xmlns:sodipodi="http://sodipodi.sourceforge.net/DTD/sodipodi-0.dtd"
   xmlns:inkscape="http://www.inkscape.org/namespaces/inkscape"
   version="1.1"
   x="0px"
   y="0px"
   width="95"
   height="95"
   viewBox="-143.979 -6 95.000003 95.000003"
   enable-background="new -143.979 -6 235.958 235.958"
   xml:space="preserve"
   id="svg2"
   inkscape:version="0.48.5 r10040"
   sodipodi:docname="service_module_pending.svg"><metadata
     id="metadata27"><rdf:RDF><cc:Work
         rdf:about=""><dc:format>image/svg+xml</dc:format><dc:type
           rdf:resource="http://purl.org/dc/dcmitype/StillImage" /></cc:Work></rdf:RDF></metadata><defs
     id="defs25" /><sodipodi:namedview
     pagecolor="#ffffff"
     bordercolor="#666666"
     borderopacity="1"
     objecttolerance="10"
     gridtolerance="10"
     guidetolerance="10"
     inkscape:pageopacity="0"
     inkscape:pageshadow="2"
     inkscape:window-width="1366"
     inkscape:window-height="702"
     id="namedview23"
     showgrid="false"
     inkscape:zoom="1.000178"
     inkscape:cx="117.979"
     inkscape:cy="117.979"
     inkscape:window-x="0"
     inkscape:window-y="27"
     inkscape:window-maximized="1"
     inkscape:current-layer="svg2" /><g
     id="Layer_1"
     inkscape:version="0.48.3.1 r9886"
     sodipodi:docname="service_module.svg"
     transform="matrix(0.40261404,0,0,0.40261404,-86.011034,-3.5843188)"><g
       id="g33_1_"
       transform="translate(-399.571,-251.207)"><g
         id="path46_1_"><path
           d="m 410.565,479.165 h -73.988 c -38.324,0 -57.56,0 -68.272,-10.713 -10.712,-10.713 -10.712,-29.949 -10.712,-68.273 v -73.986 c -0.001,-38.324 -0.001,-57.561 10.711,-68.273 10.713,-10.713 29.949,-10.713 68.274,-10.713 h 73.988 c 38.324,0 57.561,0 68.272,10.713 10.713,10.712 10.713,29.949 10.713,68.273 v 73.986 c 0,38.324 0,57.561 -10.713,68.273 -10.712,10.713 -29.949,10.713 -68.273,10.713 z M 336.577,257.207 c -34.445,0 -53.419,0 -61.203,7.784 -7.784,7.784 -7.783,26.757 -7.782,61.202 v 73.986 c 0,34.444 0,53.419 7.784,61.202 7.784,7.784 26.757,7.784 61.201,7.784 h 73.988 c 34.444,0 53.418,0 61.202,-7.784 7.783,-7.783 7.783,-26.758 7.783,-61.202 v -73.986 c 0,-34.444 0,-53.418 -7.783,-61.202 -7.784,-7.784 -26.758,-7.784 -61.202,-7.784 h -73.988 z"
           id="path7"
           inkscape:connector-curvature="0"
           style="fill:#26b4e9" /></g><g
         id="path59_1_"><path
           d="m 410.565,479.165 h -73.988 c -38.324,0 -57.56,0 -68.272,-10.713 -10.712,-10.713 -10.712,-29.949 -10.712,-68.273 v -73.986 c 0,-38.324 0,-57.561 10.712,-68.273 10.713,-10.713 29.949,-10.713 68.272,-10.713 h 73.988 c 38.324,0 57.561,0 68.272,10.713 10.713,10.712 10.713,29.949 10.713,68.273 v 73.986 c 0,38.324 0,57.561 -10.713,68.273 -10.711,10.713 -29.948,10.713 -68.272,10.713 z M 336.577,257.207 c -34.444,0 -53.417,0 -61.201,7.784 -7.784,7.784 -7.784,26.758 -7.784,61.202 v 73.986 c 0,34.444 0,53.419 7.784,61.202 7.784,7.784 26.757,7.784 61.201,7.784 h 73.988 c 34.444,0 53.418,0 61.201,-7.784 7.784,-7.783 7.784,-26.758 7.784,-61.202 v -73.986 c 0,-34.444 0,-53.418 -7.784,-61.202 -7.783,-7.784 -26.757,-7.784 -61.201,-7.784 h -73.988 z"
           id="path10"
           inkscape:connector-curvature="0"
           style="fill:#26b4e9" /></g></g><path
       clip-rule="evenodd"
       d="m -42,219.958 h 32 c 2.209,0 4,1.791 4,4 v 2 c 0,2.209 -1.791,4 -4,4 h -32 c -2.209,0 -4,-1.791 -4,-4 v -2 c 0,-2.209 1.791,-4 4,-4 z"
       id="path12"
       inkscape:connector-curvature="0"
       style="fill:#26b4e9;fill-rule:evenodd" /><path
       clip-rule="evenodd"
       d="m -42,-6 h 32 c 2.209,0 4,1.791 4,4 v 2 c 0,2.209 -1.791,4 -4,4 h -32 c -2.209,0 -4,-1.791 -4,-4 v -2 c 0,-2.209 1.791,-4 4,-4 z"
       id="path14"
       inkscape:connector-curvature="0"
       style="fill:#26b4e9;fill-rule:evenodd" /><path
       clip-rule="evenodd"
       d="m 81.979,127.979 v -32 c 0,-2.209 1.791,-4 4,-4 h 2 c 2.209,0 4,1.791 4,4 v 32 c 0,2.209 -1.791,4 -4,4 h -2 c -2.208,0 -4,-1.791 -4,-4 z"
       id="path16"
       inkscape:connector-curvature="0"
       style="fill:#26b4e9;fill-rule:evenodd" /><path
       clip-rule="evenodd"
       d="m -143.979,127.979 v -32 c 0,-2.209 1.791,-4 4,-4 h 2 c 2.209,0 4,1.791 4,4 v 32 c 0,2.209 -1.791,4 -4,4 h -2 c -2.209,0 -4,-1.791 -4,-4 z"
       id="path18"
       inkscape:connector-curvature="0"
       style="fill:#26b4e9;fill-rule:evenodd" /><path
       d="m 10.994,-1 h -73.988 c -73.987,0 -73.987,0 -73.985,73.986 v 73.986 c 0,73.986 0,73.986 73.985,73.986 h 73.988 c 73.985,0 73.985,0 73.985,-73.986 V 72.986 C 84.979,-1 84.979,-1 10.994,-1 z"
       id="path20"
       inkscape:connector-curvature="0"
       style="fill:#ffffff" /></g><g
     id="Layer_2"
     transform="translate(0,-140.958)" /></svg>